# xmcd CD database file
#
# Track frame offsets:
#	182
#	14630
#	24155
#	38487
#	59445
#	86745
#	99532
#	111262
#	124747
#	143557
#	159862
#	169932
#	182777
#	195017
#
# Disc length: 2833 seconds
#
# Revision: 1
# Processed by: cddbd v1.4PL0 Copyright (c) Steve Scherf et al.
# Submitted via: CDex 1.40Release
#
DISCID=aa0b0f0e
DTITLE=Various Artist - L'Ame Du Gospel, La Lumière Du Peuple Noir
DYEAR=1997
DGENRE=Gospel
TTITLE0=Edwin Hawkins Singers/Oh Happy Day
TTITLE1=Mahalia Jackson/Joshua Fit The Battle Of Jericho
TTITLE2=Alex Bradford/It's A Highway To Heaven
TTITLE3=Marion Williams/Didn't It Rain
TTITLE4=Bessie Griffin/Old Ship Of Zion
TTITLE5=Golden Gate Quartet/Jezebel
TTITLE6=Dorothy Love Coates/That's Enough
TTITLE7=Staple Singers/Wade In The Water
TTITLE8=Frances Steadman/Swing Low, Sweet Chariot
TTITLE9=Abyssinian Baptist Gospel Choir/I Want To Ride That Glory Train
TTITLE10=Angelic Gospel Singers/One Day
TTITLE11=Dixie Hummingbirds/I'll Live Again
TTITLE12=Aretha Franklin/Are You Sure ?
TTITLE13=Mahalia Jackson/When The Saints Go Marching In
EXTD=YEAR: 1997 ID3G: 38
EXTT0=
EXTT1=
EXTT2=
EXTT3=
EXTT4=
EXTT5=
EXTT6=
EXTT7=
EXTT8=
EXTT9=
EXTT10=
EXTT11=
EXTT12=
EXTT13=
PLAYORDER=
